HIERARCHY
ROOT mixamorig:Hips
{
	OFFSET -0.000008 104.274872 1.554316
	CHANNELS 6 Xposition Yposition Zposition Xrotation Yrotation Zrotation
	JOINT mixamorig:Spine
	{
		OFFSET -0.000005 10.181595 0.131519
		CHANNELS 6 Xposition Yposition Zposition Xrotation Yrotation Zrotation
		JOINT mixamorig:Spine1
		{
			OFFSET -0.000000 9.893959 -1.470707
			CHANNELS 6 Xposition Yposition Zposition Xrotation Yrotation Zrotation
			JOINT mixamorig:Spine2
			{
				OFFSET -0.000000 9.220757 -1.370641
				CHANNELS 6 Xposition Yposition Zposition Xrotation Yrotation Zrotation
				JOINT mixamorig:Neck
				{
					OFFSET 0.000001 16.740417 -2.049036
					CHANNELS 6 Xposition Yposition Zposition Xrotation Yrotation Zrotation
					JOINT mixamorig:Head
					{
						OFFSET 0.000000 9.617874 1.685006
						CHANNELS 6 Xposition Yposition Zposition Xrotation Yrotation Zrotation
						JOINT mixamorig:HeadTop_End
						{
							OFFSET 0.000002 22.037354 7.501101
							CHANNELS 6 Xposition Yposition Zposition Xrotation Yrotation Zrotation
							End Site
							{
								OFFSET 0.000168 2310.654297 -282.823242
							}
						}
					}
				}
				JOINT mixamorig:RightShoulder
				{
					OFFSET -4.569970 11.014908 -2.160885
					CHANNELS 6 Xposition Yposition Zposition Xrotation Yrotation Zrotation
					JOINT mixamorig:RightArm
					{
						OFFSET -10.592851 -0.524811 -2.232101
						CHANNELS 6 Xposition Yposition Zposition Xrotation Yrotation Zrotation
						JOINT mixamorig:RightForeArm
						{
							OFFSET -27.841511 0.000031 -0.000004
							CHANNELS 6 Xposition Yposition Zposition Xrotation Yrotation Zrotation
							JOINT mixamorig:RightHand
							{
								OFFSET -28.328831 -0.000015 0.000015
								CHANNELS 6 Xposition Yposition Zposition Xrotation Yrotation Zrotation
								JOINT mixamorig:RightHandThumb1
								{
									OFFSET -2.464806 -1.573990 2.681852
									CHANNELS 6 Xposition Yposition Zposition Xrotation Yrotation Zrotation
									JOINT mixamorig:RightHandThumb2
									{
										OFFSET -3.215179 -1.872803 1.924282
										CHANNELS 6 Xposition Yposition Zposition Xrotation Yrotation Zrotation
										JOINT mixamorig:RightHandThumb3
										{
											OFFSET -2.654831 -1.527969 1.512609
											CHANNELS 6 Xposition Yposition Zposition Xrotation Yrotation Zrotation
											JOINT mixamorig:RightHandThumb4
											{
												OFFSET -2.018814 -1.152008 1.108052
												CHANNELS 6 Xposition Yposition Zposition Xrotation Yrotation Zrotation
												End Site
												{
													OFFSET -188.809540 -114.533607 132.431396
												}
											}
										}
									}
								}
								JOINT mixamorig:RightHandIndex1
								{
									OFFSET -9.108284 -0.517868 2.259835
									CHANNELS 6 Xposition Yposition Zposition Xrotation Yrotation Zrotation
									JOINT mixamorig:RightHandIndex2
									{
										OFFSET -3.699989 0.000000 0.001215
										CHANNELS 6 Xposition Yposition Zposition Xrotation Yrotation Zrotation
										JOINT mixamorig:RightHandIndex3
										{
											OFFSET -2.850006 0.000031 -0.000522
											CHANNELS 6 Xposition Yposition Zposition Xrotation Yrotation Zrotation
											JOINT mixamorig:RightHandIndex4
											{
												OFFSET -2.772186 -0.000015 -0.000020
												CHANNELS 6 Xposition Yposition Zposition Xrotation Yrotation Zrotation
												End Site
												{
													OFFSET -277.218445 0.000000 -0.050231
												}
											}
										}
									}
								}
								JOINT mixamorig:RightHandMiddle1
								{
									OFFSET -9.532516 -0.000031 -0.000023
									CHANNELS 6 Xposition Yposition Zposition Xrotation Yrotation Zrotation
									JOINT mixamorig:RightHandMiddle2
									{
										OFFSET -3.700005 -0.000015 0.003713
										CHANNELS 6 Xposition Yposition Zposition Xrotation Yrotation Zrotation
										JOINT mixamorig:RightHandMiddle3
										{
											OFFSET -2.949974 0.000015 -0.002054
											CHANNELS 6 Xposition Yposition Zposition Xrotation Yrotation Zrotation
											JOINT mixamorig:RightHandMiddle4
											{
												OFFSET -2.946640 0.000000 -0.000156
												CHANNELS 6 Xposition Yposition Zposition Xrotation Yrotation Zrotation
												End Site
												{
													OFFSET -294.664337 0.000000 -0.113670
												}
											}
										}
									}
								}
								JOINT mixamorig:RightHandRing1
								{
									OFFSET -9.103600 -0.043076 -1.865134
									CHANNELS 6 Xposition Yposition Zposition Xrotation Yrotation Zrotation
									JOINT mixamorig:RightHandRing2
									{
										OFFSET -3.379288 0.000000 -0.001055
										CHANNELS 6 Xposition Yposition Zposition Xrotation Yrotation Zrotation
										JOINT mixamorig:RightHandRing3
										{
											OFFSET -2.889687 -0.000015 0.000379
											CHANNELS 6 Xposition Yposition Zposition Xrotation Yrotation Zrotation
											JOINT mixamorig:RightHandRing4
											{
												OFFSET -2.638809 -0.000015 0.000941
												CHANNELS 6 Xposition Yposition Zposition Xrotation Yrotation Zrotation
												End Site
												{
													OFFSET -263.880371 0.000000 0.516020
												}
											}
										}
									}
								}
								JOINT mixamorig:RightHandPinky1
								{
									OFFSET -8.076683 -0.486710 -3.806280
									CHANNELS 6 Xposition Yposition Zposition Xrotation Yrotation Zrotation
									JOINT mixamorig:RightHandPinky2
									{
										OFFSET -3.600014 -0.000015 -0.003747
										CHANNELS 6 Xposition Yposition Zposition Xrotation Yrotation Zrotation
										JOINT mixamorig:RightHandPinky3
										{
											OFFSET -2.099983 0.000000 -0.005739
											CHANNELS 6 Xposition Yposition Zposition Xrotation Yrotation Zrotation
											JOINT mixamorig:RightHandPinky4
											{
												OFFSET -2.115768 -0.000031 -0.003680
												CHANNELS 6 Xposition Yposition Zposition Xrotation Yrotation Zrotation
												End Site
												{
													OFFSET -211.577087 0.000000 -0.350686
												}
											}
										}
									}
								}
							}
						}
					}
				}
				JOINT mixamorig:LeftShoulder
				{
					OFFSET 4.570447 11.014725 -2.160855
					CHANNELS 6 Xposition Yposition Zposition Xrotation Yrotation Zrotation
					JOINT mixamorig:LeftArm
					{
						OFFSET 10.592371 -0.524597 -2.232119
						CHANNELS 6 Xposition Yposition Zposition Xrotation Yrotation Zrotation
						JOINT mixamorig:LeftForeArm
						{
							OFFSET 27.841532 -0.000031 0.000026
							CHANNELS 6 Xposition Yposition Zposition Xrotation Yrotation Zrotation
							JOINT mixamorig:LeftHand
							{
								OFFSET 28.328846 -0.000061 0.000022
								CHANNELS 6 Xposition Yposition Zposition Xrotation Yrotation Zrotation
								JOINT mixamorig:LeftHandThumb1
								{
									OFFSET 2.466141 -1.576172 2.681732
									CHANNELS 6 Xposition Yposition Zposition Xrotation Yrotation Zrotation
									JOINT mixamorig:LeftHandThumb2
									{
										OFFSET 3.217812 -1.872070 1.916482
										CHANNELS 6 Xposition Yposition Zposition Xrotation Yrotation Zrotation
										JOINT mixamorig:LeftHandThumb3
										{
											OFFSET 2.656029 -1.528778 1.514513
											CHANNELS 6 Xposition Yposition Zposition Xrotation Yrotation Zrotation
											JOINT mixamorig:LeftHandThumb4
											{
												OFFSET 2.020889 -1.154053 1.115139
												CHANNELS 6 Xposition Yposition Zposition Xrotation Yrotation Zrotation
												End Site
												{
													OFFSET 190.885437 -115.081749 130.048782
												}
											}
										}
									}
								}
								JOINT mixamorig:LeftHandIndex1
								{
									OFFSET 9.109314 -0.518021 2.259871
									CHANNELS 6 Xposition Yposition Zposition Xrotation Yrotation Zrotation
									JOINT mixamorig:LeftHandIndex2
									{
										OFFSET 3.699989 0.000000 -0.000322
										CHANNELS 6 Xposition Yposition Zposition Xrotation Yrotation Zrotation
										JOINT mixamorig:LeftHandIndex3
										{
											OFFSET 2.850006 0.000000 0.000352
											CHANNELS 6 Xposition Yposition Zposition Xrotation Yrotation Zrotation
											JOINT mixamorig:LeftHandIndex4
											{
												OFFSET 2.774864 -0.000031 -0.000027
												CHANNELS 6 Xposition Yposition Zposition Xrotation Yrotation Zrotation
												End Site
												{
													OFFSET 277.486267 0.000000 -0.009857
												}
											}
										}
									}
								}
								JOINT mixamorig:LeftHandMiddle1
								{
									OFFSET 9.533394 0.000061 0.000044
									CHANNELS 6 Xposition Yposition Zposition Xrotation Yrotation Zrotation
									JOINT mixamorig:LeftHandMiddle2
									{
										OFFSET 3.699989 -0.000015 -0.000231
										CHANNELS 6 Xposition Yposition Zposition Xrotation Yrotation Zrotation
										JOINT mixamorig:LeftHandMiddle3
										{
											OFFSET 2.949997 -0.000015 -0.000059
											CHANNELS 6 Xposition Yposition Zposition Xrotation Yrotation Zrotation
											JOINT mixamorig:LeftHandMiddle4
											{
												OFFSET 2.952896 0.000031 0.000063
												CHANNELS 6 Xposition Yposition Zposition Xrotation Yrotation Zrotation
												End Site
												{
													OFFSET 295.289337 0.000000 0.022810
												}
											}
										}
									}
								}
								JOINT mixamorig:LeftHandRing1
								{
									OFFSET 9.104523 -0.042999 -1.865074
									CHANNELS 6 Xposition Yposition Zposition Xrotation Yrotation Zrotation
									JOINT mixamorig:LeftHandRing2
									{
										OFFSET 3.150009 -0.000031 0.000043
										CHANNELS 6 Xposition Yposition Zposition Xrotation Yrotation Zrotation
										JOINT mixamorig:LeftHandRing3
										{
											OFFSET 2.949982 -0.000015 0.000040
											CHANNELS 6 Xposition Yposition Zposition Xrotation Yrotation Zrotation
											JOINT mixamorig:LeftHandRing4
											{
												OFFSET 2.644348 0.000000 0.000057
												CHANNELS 6 Xposition Yposition Zposition Xrotation Yrotation Zrotation
												End Site
												{
													OFFSET 264.434631 0.000000 0.012105
												}
											}
										}
									}
								}
								JOINT mixamorig:LeftHandPinky1
								{
									OFFSET 8.077789 -0.486847 -3.806259
									CHANNELS 6 Xposition Yposition Zposition Xrotation Yrotation Zrotation
									JOINT mixamorig:LeftHandPinky2
									{
										OFFSET 3.599953 0.000031 0.014727
										CHANNELS 6 Xposition Yposition Zposition Xrotation Yrotation Zrotation
										JOINT mixamorig:LeftHandPinky3
										{
											OFFSET 2.100021 0.000015 0.007705
											CHANNELS 6 Xposition Yposition Zposition Xrotation Yrotation Zrotation
											JOINT mixamorig:LeftHandPinky4
											{
												OFFSET 2.125504 0.000031 0.007517
												CHANNELS 6 Xposition Yposition Zposition Xrotation Yrotation Zrotation
												End Site
												{
													OFFSET 212.550781 0.000000 0.625752
												}
											}
										}
									}
								}
							}
						}
					}
				}
			}
		}
	}
	JOINT mixamorig:RightUpLeg
	{
		OFFSET -8.207787 -6.751648 -1.599560
		CHANNELS 6 Xposition Yposition Zposition Xrotation Yrotation Zrotation
		JOINT mixamorig:RightLeg
		{
			OFFSET -0.000002 -44.370117 0.345942
			CHANNELS 6 Xposition Yposition Zposition Xrotation Yrotation Zrotation
			JOINT mixamorig:RightFoot
			{
				OFFSET 0.000003 -44.423679 -3.043532
				CHANNELS 6 Xposition Yposition Zposition Xrotation Yrotation Zrotation
				JOINT mixamorig:RightToeBase
				{
					OFFSET -0.000002 -8.728671 10.710558
					CHANNELS 6 Xposition Yposition Zposition Xrotation Yrotation Zrotation
					JOINT mixamorig:RightToe_End
					{
						OFFSET -0.000001 -0.000679 9.278119
						CHANNELS 6 Xposition Yposition Zposition Xrotation Yrotation Zrotation
						End Site
						{
							OFFSET 0.000000 -0.067690 927.812134
						}
					}
				}
			}
		}
	}
	JOINT mixamorig:LeftUpLeg
	{
		OFFSET 8.207793 -6.751686 -1.599556
		CHANNELS 6 Xposition Yposition Zposition Xrotation Yrotation Zrotation
		JOINT mixamorig:LeftLeg
		{
			OFFSET -0.000004 -44.370014 0.346954
			CHANNELS 6 Xposition Yposition Zposition Xrotation Yrotation Zrotation
			JOINT mixamorig:LeftFoot
			{
				OFFSET -0.000001 -44.423672 -3.044401
				CHANNELS 6 Xposition Yposition Zposition Xrotation Yrotation Zrotation
				JOINT mixamorig:LeftToeBase
				{
					OFFSET -0.000002 -8.728669 10.710558
					CHANNELS 6 Xposition Yposition Zposition Xrotation Yrotation Zrotation
					JOINT mixamorig:LeftToe_End
					{
						OFFSET -0.000003 -0.000679 9.278133
						CHANNELS 6 Xposition Yposition Zposition Xrotation Yrotation Zrotation
						End Site
						{
							OFFSET 0.000000 -0.068021 927.813477
						}
					}
				}
			}
		}
	}
}
MOTION
Frames: 3
Frame Time: 0.033333
0.000006 104.270477 1.554256 0.000010 0.000003 -0.000113 -0.000005 10.181587 0.131522 0.000001 -0.000003 0.000084 -0.000000 9.893967 -1.470711 0.000001 0.000000 -0.000000 -0.000000 9.220802 -1.370642 0.000000 -0.000000 -0.000000 0.000001 16.740433 -2.049030 0.000000 -0.000000 -0.000000 0.000000 9.617859 1.685014 0.000000 0.000000 0.000000 0.000002 22.037384 7.501101 0.000000 -0.000000 0.000000 -4.569968 11.014880 -2.160881 0.000008 0.000001 -0.000038 -10.592877 -0.524697 -2.231997 72.172929 13.092902 -9.562274 -27.841534 0.000000 0.000526 -57.698563 119.174684 86.363815 -28.328833 0.000006 0.000025 -0.000319 -0.000045 0.000006 -2.464437 -1.573790 2.682358 -46.127546 -168.257025 -4.555281 -3.215275 -1.872585 1.924657 157.235326 32.450201 6.583487 -2.654958 -1.527919 1.513095 150.776180 25.249748 -44.170014 -2.018826 -1.152004 1.108064 -0.000006 -0.000001 0.000002 -9.108380 -0.517564 2.260151 100.136297 17.069111 -20.383465 -3.700090 0.000317 0.001507 94.373639 14.950632 -16.096890 -2.850079 0.000346 -0.000276 91.216063 11.542273 -11.787205 -2.772189 -0.000002 -0.000021 -0.000001 0.000005 -0.000002 -9.532593 0.000280 0.000235 92.291490 14.843147 -15.588066 -3.700042 0.000328 0.003963 90.701784 11.960260 -12.010914 -2.950053 0.000329 -0.001829 89.637620 10.667207 -10.593358 -2.946634 -0.000014 -0.000150 -0.000005 0.000001 0.000000 -9.103701 -0.042758 -1.864882 89.325214 15.541260 -15.318005 -3.379308 0.000329 -0.000811 91.464238 9.254532 -9.510734 -2.889754 0.000361 0.000633 93.685573 5.994834 -6.440526 -2.638808 -0.000016 0.000929 -0.000001 -0.000002 -0.000000 -8.076749 -0.486389 -3.806039 86.378418 15.163725 -14.105034 -3.600054 0.000309 -0.003541 88.399081 6.203304 -5.697699 -2.100018 0.000324 -0.005525 88.435425 2.519659 -2.248133 -2.115776 -0.000041 -0.003692 0.000001 -0.000002 -0.000003 4.570446 11.014691 -2.160851 -0.000018 0.000010 -0.000021 10.592368 -0.524516 -2.232303 70.801372 1.737238 -1.234590 27.841835 0.000120 -0.000202 105.707027 -62.915133 77.845988 28.328823 -0.000028 0.000022 0.000018 -0.000089 0.000000 2.466021 -1.576173 2.681903 -35.858363 158.980357 -17.213492 3.217827 -1.871786 1.916376 158.882467 -28.705629 13.714218 2.656105 -1.528647 1.514466 137.658774 -28.345679 50.373567 2.020914 -1.154093 1.115153 -0.000000 0.000000 0.000003 9.109386 -0.517862 2.259735 85.520047 -16.589751 15.344742 3.700055 0.000139 -0.000470 82.788559 -14.375431 12.701111 2.850038 0.000191 0.000202 80.602912 -11.818011 10.031789 2.774882 -0.000011 -0.000037 -0.000002 -0.000002 -0.000001 9.533469 0.000207 -0.000071 86.654760 -15.808555 14.913542 3.700053 0.000179 -0.000379 87.768477 -12.587497 12.107614 2.950062 0.000185 -0.000203 88.294238 -14.649477 14.227097 2.952873 -0.000014 0.000064 -0.000001 0.000000 0.000000 9.104586 -0.042844 -1.865228 86.651878 -14.112590 13.320322 3.150050 0.000206 -0.000109 90.049665 -10.731241 10.742284 2.950016 0.000188 -0.000068 92.082035 -11.586436 12.014040 2.644329 0.000032 0.000056 0.000002 0.000000 -0.000001 8.077835 -0.486733 -3.806383 79.486422 -15.793516 13.646115 3.600002 0.000195 0.014559 80.927025 -12.026443 10.698755 2.100034 0.000189 0.007540 82.909535 -10.793445 9.961134 2.125500 -0.000012 0.007513 -0.000000 0.000001 0.000001 -8.207786 -6.751667 -1.599560 -0.077001 -0.000003 0.000080 -0.000002 -44.370110 0.345938 0.153719 -0.000000 -0.000000 0.000000 -44.423679 -3.043532 -0.076700 0.000000 -0.000002 -0.000006 -8.728667 10.710559 -0.000009 -0.000000 -0.000000 -0.000001 -0.000679 9.278123 0.000000 -0.000000 -0.000000 8.207792 -6.751710 -1.599556 -0.074518 -0.000003 0.000081 -0.000002 -44.370014 0.346960 0.148822 0.000002 0.000000 -0.000001 -44.423664 -3.044403 -0.074314 0.000000 -0.000002 -0.000004 -8.728671 10.710558 0.000007 -0.000000 -0.000000 0.000000 -0.000680 9.278137 -0.000000 0.000000 -0.000001 
0.000006 104.270477 1.554256 0.000010 0.000003 -0.000113 -0.000005 10.181587 0.131522 0.000001 -0.000003 0.000084 -0.000000 9.893967 -1.470711 0.000001 0.000000 -0.000000 -0.000000 9.220802 -1.370642 0.000000 -0.000000 -0.000000 0.000001 16.740433 -2.049030 0.000000 -0.000000 -0.000000 0.000000 9.617859 1.685014 0.000000 0.000000 0.000000 0.000002 22.037384 7.501101 0.000000 -0.000000 0.000000 -4.569968 11.014880 -2.160881 0.000008 0.000001 -0.000038 -10.592867 -0.524669 -2.232025 71.931324 6.360661 -4.617722 -27.841534 0.000007 0.000560 -57.346719 121.711990 88.887815 -28.328825 0.000021 0.000026 -0.000319 -0.000044 0.000005 -2.464431 -1.573755 2.682333 -48.694273 -168.476205 -11.898960 -3.215296 -1.872620 1.924677 156.813685 29.710213 -8.310318 -2.654959 -1.527903 1.513095 144.736039 27.027907 -41.581751 -2.018822 -1.151998 1.108063 -0.000006 -0.000000 0.000003 -9.108383 -0.517558 2.260123 97.854549 16.439306 -18.875622 -3.700076 0.000327 0.001508 95.430645 13.439409 -14.737696 -2.850063 0.000371 -0.000274 94.137813 10.225650 -10.986623 -2.772174 -0.000014 -0.000014 0.000003 0.000001 0.000001 -9.532585 0.000266 0.000233 91.113276 16.109028 -16.565994 -3.700090 0.000328 0.003956 91.065403 11.550845 -11.670334 -2.950067 0.000340 -0.001817 93.178691 10.296555 -10.873430 -2.946627 -0.000003 -0.000160 -0.000003 0.000003 -0.000002 -9.103703 -0.042748 -1.864881 89.806660 17.083048 -16.981853 -3.379329 0.000323 -0.000804 90.866678 9.102638 -9.258277 -2.889756 0.000359 0.000630 96.436868 5.994566 -6.757638 -2.638825 -0.000004 0.000930 -0.000002 -0.000000 0.000000 -8.076746 -0.486380 -3.806024 86.188620 17.229314 -15.993274 -3.600030 0.000288 -0.003527 89.609172 7.618956 -7.218532 -2.100002 0.000322 -0.005492 93.549461 3.889266 -3.910349 -2.115757 -0.000054 -0.003683 0.000001 0.000002 -0.000008 4.570446 11.014691 -2.160851 -0.000018 0.000010 -0.000021 10.592357 -0.524540 -2.232256 71.875030 12.954472 -9.409350 27.841837 0.000119 -0.000198 105.039055 -61.594400 75.718897 28.328848 -0.000029 0.000021 0.000021 -0.000089 0.000002 2.466232 -1.576100 2.681854 -4.829294 163.861894 -79.957452 3.217872 -1.871825 1.916405 164.591891 -23.254450 34.918464 2.656105 -1.528689 1.514480 138.061756 -27.984950 59.268570 2.020883 -1.154086 1.115138 -0.000001 0.000002 0.000003 9.109381 -0.517856 2.259748 85.174488 -18.113855 16.658920 3.700042 0.000166 -0.000461 83.435241 -11.309311 10.104019 2.850040 0.000193 0.000193 82.062961 -7.630181 6.641498 2.774888 -0.000029 -0.000023 -0.000001 -0.000004 -0.000000 9.533464 0.000222 -0.000070 86.055350 -17.558670 16.397645 3.700040 0.000194 -0.000376 88.516540 -9.414327 9.172199 2.950038 0.000186 -0.000210 88.557439 -8.625200 8.414239 2.952873 -0.000031 0.000063 -0.000000 0.000001 0.000000 9.104589 -0.042839 -1.865209 86.730978 -16.826716 15.907195 3.150050 0.000214 -0.000115 92.415731 -11.048132 11.522794 2.949999 0.000208 -0.000079 92.451030 -8.889841 9.278621 2.644321 0.000033 0.000050 0.000002 -0.000001 0.000002 8.077854 -0.486708 -3.806389 84.115583 -18.685494 17.428582 3.600005 0.000191 0.014570 82.262655 -16.264586 14.687678 2.100039 0.000175 0.007535 81.176901 -11.115565 9.941514 2.125499 -0.000003 0.007525 0.000003 0.000001 0.000002 -8.207786 -6.751667 -1.599560 -0.077001 -0.000003 0.000080 -0.000002 -44.370110 0.345938 0.153719 -0.000000 -0.000000 0.000000 -44.423679 -3.043532 -0.076700 0.000000 -0.000002 -0.000006 -8.728667 10.710559 -0.000009 -0.000000 -0.000000 -0.000001 -0.000679 9.278123 0.000000 -0.000000 -0.000000 8.207792 -6.751710 -1.599556 -0.074518 -0.000003 0.000081 -0.000002 -44.370014 0.346960 0.148822 0.000002 0.000000 -0.000001 -44.423664 -3.044403 -0.074314 0.000000 -0.000002 -0.000004 -8.728671 10.710558 0.000007 -0.000000 -0.000000 0.000000 -0.000680 9.278137 -0.000000 0.000000 -0.000001 
0.000006 104.270477 1.554256 0.000010 0.000003 -0.000113 -0.000005 10.181587 0.131522 0.000001 -0.000003 0.000084 -0.000000 9.893967 -1.470711 0.000001 0.000000 -0.000000 -0.000000 9.220802 -1.370642 0.000000 -0.000000 -0.000000 0.000001 16.740433 -2.049030 0.000000 -0.000000 -0.000000 0.000000 9.617859 1.685014 0.000000 0.000000 0.000000 0.000002 22.037384 7.501101 0.000000 -0.000000 0.000000 -4.569968 11.014880 -2.160881 0.000008 0.000001 -0.000038 -10.592872 -0.524684 -2.232020 71.703770 9.523816 -6.889496 -27.841524 -0.000002 0.000522 -56.421905 119.231580 84.911983 -28.328814 0.000021 0.000019 -0.000317 -0.000045 0.000007 -2.464420 -1.573821 2.682370 -40.986845 -162.233727 7.237983 -3.215279 -1.872645 1.924695 160.119332 28.801296 -13.251942 -2.654960 -1.527892 1.513104 146.537979 26.429593 -43.420230 -2.018812 -1.152000 1.108061 -0.000004 0.000002 0.000005 -9.108394 -0.517564 2.260133 99.987139 17.638033 -21.002465 -3.700078 0.000315 0.001516 98.493432 12.989519 -15.023933 -2.850060 0.000378 -0.000271 96.712822 8.994161 -10.108365 -2.772174 -0.000013 -0.000016 0.000001 0.000000 -0.000002 -9.532598 0.000261 0.000244 93.117116 17.175142 -18.271996 -3.700057 0.000342 0.003974 93.985910 10.829247 -11.505028 -2.950056 0.000352 -0.001814 95.314996 9.361453 -10.260546 -2.946629 0.000013 -0.000153 -0.000003 0.000000 -0.000001 -9.103693 -0.042759 -1.864888 92.330053 17.113189 -17.766090 -3.379324 0.000309 -0.000799 94.908094 8.322044 -9.082902 -2.889752 0.000357 0.000664 99.402659 4.943839 -5.880653 -2.638801 -0.000009 0.000933 0.000005 -0.000000 -0.000003 -8.076730 -0.486382 -3.806041 87.408082 16.763798 -15.888188 -3.600022 0.000291 -0.003503 92.672321 7.475936 -7.464873 -2.100014 0.000338 -0.005459 95.838155 3.766084 -3.934163 -2.115799 -0.000029 -0.003677 -0.000002 0.000000 -0.000003 4.570446 11.014691 -2.160851 -0.000018 0.000010 -0.000021 10.592354 -0.524540 -2.232268 71.516063 14.203116 -10.252998 27.841837 0.000113 -0.000227 105.278036 -64.983649 79.667702 28.328844 -0.000029 0.000023 0.000021 -0.000090 0.000001 2.466245 -1.576079 2.681839 -0.231424 166.910535 -89.859594 3.217887 -1.871862 1.916432 162.011227 -20.254311 48.685281 2.656097 -1.528709 1.514494 135.744054 -28.864062 60.411671 2.020895 -1.154086 1.115149 -0.000001 0.000003 0.000004 9.109377 -0.517868 2.259745 84.952336 -18.380054 16.839813 3.700037 0.000160 -0.000468 84.465698 -11.177831 10.167856 2.850047 0.000210 0.000198 82.764865 -7.446900 6.562257 2.774889 -0.000043 -0.000030 -0.000000 -0.000003 -0.000001 9.533459 0.000206 -0.000085 85.541842 -17.779512 16.457875 3.700048 0.000190 -0.000399 88.795034 -9.031102 8.841371 2.950061 0.000195 -0.000206 88.815491 -7.969035 7.809200 2.952881 -0.000014 0.000062 -0.000001 0.000001 0.000000 9.104575 -0.042842 -1.865210 85.828963 -16.797040 15.633652 3.150062 0.000217 -0.000083 91.572483 -11.349584 11.665134 2.950011 0.000199 -0.000089 91.619283 -8.790127 9.042845 2.644320 0.000017 0.000063 0.000001 0.000003 0.000002 8.077839 -0.486713 -3.806398 82.081819 -18.526676 16.685908 3.599997 0.000189 0.014567 80.770921 -16.683092 14.670384 2.100029 0.000183 0.007547 80.147072 -11.243971 9.872081 2.125507 -0.000019 0.007524 0.000001 -0.000001 -0.000001 -8.207786 -6.751667 -1.599560 -0.077001 -0.000003 0.000080 -0.000002 -44.370110 0.345938 0.153719 -0.000000 -0.000000 0.000000 -44.423679 -3.043532 -0.076700 0.000000 -0.000002 -0.000006 -8.728667 10.710559 -0.000009 -0.000000 -0.000000 -0.000001 -0.000679 9.278123 0.000000 -0.000000 -0.000000 8.207792 -6.751710 -1.599556 -0.074518 -0.000003 0.000081 -0.000002 -44.370014 0.346960 0.148822 0.000002 0.000000 -0.000001 -44.423664 -3.044403 -0.074314 0.000000 -0.000002 -0.000004 -8.728671 10.710558 0.000007 -0.000000 -0.000000 0.000000 -0.000680 9.278137 -0.000000 0.000000 -0.000001 
